<svg width="32" height="32" viewBox="0 0 32 32" fill="none" xmlns="http://www.w3.org/2000/svg">
<rect width="32" height="32" rx="10" fill="#8CBFC2"/>
<path d="M25.0502 26.6493L24.692 24.9776C23.9539 21.5332 22.6016 18.2964 20.672 15.3529V12.6406C21.5608 11.9718 22.1368 10.9084 22.1368 9.71289V8.24805C22.1368 7.84355 21.8089 7.51562 21.4044 7.51562H20.672V4.73242C20.672 4.32793 20.344 4 19.9395 4C19.5351 4 19.2071 4.32793 19.2071 4.73242V7.52339C17.8917 7.6001 16.7392 8.29209 16.0333 9.31528C15.3274 8.29209 14.1749 7.6001 12.8595 7.52339V4.73242C12.8595 4.32793 12.5315 4 12.127 4C11.7225 4 11.3946 4.32793 11.3946 4.73242V7.51562H10.6622C10.2577 7.51562 9.92978 7.84355 9.92978 8.24805V9.71289C9.92978 10.9084 10.5058 11.9718 11.3946 12.6406V15.3529C9.46503 18.2964 8.11264 21.5332 7.37455 24.9776L7.01635 26.6493C6.93979 27.0066 7.13837 27.3658 7.48183 27.4909C10.2307 28.4923 13.1078 29 16.0333 29C18.9588 29 21.8359 28.4923 24.5848 27.4909C24.9282 27.3658 25.1268 27.0067 25.0502 26.6493V26.6493ZM19.4513 8.98047H20.672V9.71289C20.672 10.9245 19.6863 11.9102 18.4747 11.9102H16.7657V11.666C16.7657 10.1852 17.9705 8.98047 19.4513 8.98047ZM11.3946 8.98047H12.6153C14.0961 8.98047 15.3009 10.1852 15.3009 11.666V11.9102H13.5919C12.3803 11.9102 11.3946 10.9245 11.3946 9.71289V8.98047ZM13.5919 13.375H18.4747C18.7255 13.375 18.9704 13.3496 19.2071 13.3013V14.8398H12.8595V13.3013C13.0962 13.3496 13.3411 13.375 13.5919 13.375V13.375ZM16.0333 27.5352C13.4918 27.5352 10.9889 27.128 8.58402 26.3244L8.80683 25.2846C9.49447 22.0757 10.7438 19.0566 12.5223 16.3047L19.5442 16.3047C21.3227 19.0566 22.5721 22.0757 23.2597 25.2845L23.4825 26.3244C21.0777 27.128 18.5748 27.5352 16.0333 27.5352Z" fill="white"/>
</svg>
